<?xml version="1.0" encoding="utf-8"?>
<!-- Generator: Adobe Illustrator 25.4.1, SVG Export Plug-In . SVG Version: 6.00 Build 0)  -->
<svg version="1.1" id="Light" xmlns="http://www.w3.org/2000/svg" xmlns:xlink="http://www.w3.org/1999/xlink" x="0px" y="0px"
	 viewBox="0 0 24 24" style="enable-background:new 0 0 24 24;" xml:space="preserve">
<style type="text/css">
	.st0{fill:#FFFFFF;}
</style>
<path class="st0" d="M12.4,4.7l10.8,12.5c0.2,0.2,0.2,0.5-0.1,0.7c0,0,0,0,0,0l-1.8,1.6c-0.2,0.2-0.5,0.2-0.7-0.1c0,0,0,0,0,0
	l-8.4-9.9c-0.1-0.1-0.2-0.1-0.4,0c0,0,0,0,0,0l-8.4,9.9c-0.2,0.2-0.5,0.2-0.7,0.1c0,0,0,0,0,0l-1.8-1.6c-0.2-0.2-0.2-0.5-0.1-0.7
	c0,0,0,0,0,0L11.6,4.7C11.8,4.4,12.1,4.4,12.4,4.7C12.3,4.6,12.4,4.6,12.4,4.7z"/>
</svg>
